<svg xmlns="http://www.w3.org/2000/svg" viewBox="0 0 500 500"><g id="freepik--Plant--inject-41"><path d="M401.49,452.87a2.89,2.89,0,0,1-.63-.13c-.41-.1-1-.3-1.78-.47a42.18,42.18,0,0,0-16.64-.65,41,41,0,0,0-30.82,24.67c-.33.73-.51,1.32-.68,1.71a4.35,4.35,0,0,1-.26.59,2.91,2.91,0,0,1,.16-.62c.13-.4.29-1,.59-1.75a36.9,36.9,0,0,1,3-6.12,39.86,39.86,0,0,1,38.05-19.26,36.15,36.15,0,0,1,6.69,1.24c.78.19,1.36.43,1.76.56A3.39,3.39,0,0,1,401.49,452.87Z" style="fill:#263238"></path><path d="M398.05,451.33a14.88,14.88,0,0,0-2.79,15.07c.39,1,1.1,2.08,2.17,2.09s1.85-1.21,2.22-2.29a17.49,17.49,0,0,0-1.25-13.85,20,20,0,0,0,7.32,9c1.24.83,3,1.51,4.16.62s1.05-2.64.57-4a11.79,11.79,0,0,0-11.75-7.57A11.07,11.07,0,0,0,409.56,444c.68-1.59.75-3.84-.78-4.64a3.63,3.63,0,0,0-3,.23,14.09,14.09,0,0,0-7.87,8.8A12.4,12.4,0,0,0,395.61,435c-1.07-1.11-2.6-2.06-4.08-1.63-1.86.54-2.48,2.89-2.43,4.83a16.23,16.23,0,0,0,6.52,12.42,9.2,9.2,0,0,0-8.55-.74c-1.8.77-3.48,2.75-2.68,4.53s3.14,1.86,5,1.52a23,23,0,0,0,9.28-4" style="fill:#456445"></path><path d="M363.63,459.21a30.73,30.73,0,0,0,23.24,11.46c-.15-2-1.7-3.5-3.26-4.69A31.69,31.69,0,0,0,364,459.54" style="fill:#455a64"></path><path d="M397.12,461.92a47.66,47.66,0,0,0,.95-5.79,49.48,49.48,0,0,0-.28-5.86,15.54,15.54,0,0,1-.67,11.65Z" style="fill:#263238"></path><path d="M404.61,457.74A23.8,23.8,0,0,0,401.7,454c-1.92-1.81-3.89-2.79-3.8-2.94a10.22,10.22,0,0,1,4.16,2.56A7.87,7.87,0,0,1,404.61,457.74Z" style="fill:#263238"></path><path d="M404.24,444.64a8.55,8.55,0,0,1-2.35,4,7.28,7.28,0,0,1-4,2.43,21.37,21.37,0,0,0,3.61-2.79A44.7,44.7,0,0,0,404.24,444.64Z" style="fill:#263238"></path><path d="M398,448.82a1.81,1.81,0,0,1,1.5,3A5.1,5.1,0,0,0,398,451a7.55,7.55,0,0,0,0-2.18" style="fill:#fafafa"></path><path d="M392.68,438.21a6.3,6.3,0,0,1,1.42,1.56,18.74,18.74,0,0,1,3.55,9.43,5.81,5.81,0,0,1,0,2.1,35.31,35.31,0,0,0-1.57-6.88A37,37,0,0,0,392.68,438.21Z" style="fill:#263238"></path><path d="M38.34,440.82a8,8,0,0,1,5.73,2.5,14.21,14.21,0,0,1,3.17,5.53c1.31,3.93.95,8.69,0,12.74-4.42-1.29-7.38-5.74-8.73-8.09-2.14-3.72-3.76-11.74-.22-12.68" style="fill:#456445"></path><path d="M53.81,466.05a6.82,6.82,0,0,1-.73-6.8,9,9,0,0,1,5.17-4.7,3.8,3.8,0,0,1,3.21,0,2.9,2.9,0,0,1,1.28,2.65A5.86,5.86,0,0,1,61.67,460c-1.93,3-4.35,5.5-7.86,6" style="fill:#456445"></path><path d="M55.1,479.38a5.11,5.11,0,0,1-.24-.82c-.15-.58-.35-1.34-.58-2.25a24,24,0,0,1-1-7.62,14.74,14.74,0,0,1,2.41-7.27,10.59,10.59,0,0,1,1.54-1.76c.2-.19.38-.31.49-.4s.18-.13.19-.12a15.41,15.41,0,0,0-2,2.4,15.16,15.16,0,0,0-2.29,7.17,26.08,26.08,0,0,0,.85,7.55c.22,1,.39,1.74.49,2.28A4,4,0,0,1,55.1,479.38Z" style="fill:#263238"></path><path d="M40.1,446.82a1.28,1.28,0,0,1,.2.31l.5.94c.44.82,1.05,2,1.79,3.48,1.49,2.95,3.49,7.05,5.6,11.63S52.11,472,53.38,475c.63,1.52,1.13,2.76,1.47,3.62.16.41.28.74.38,1a1.48,1.48,0,0,1,.12.36,1.71,1.71,0,0,1-.17-.33c-.12-.25-.26-.58-.44-1-.38-.89-.91-2.1-1.56-3.59-1.32-3-3.16-7.2-5.26-11.78s-4.08-8.69-5.52-11.66c-.7-1.46-1.28-2.65-1.7-3.52q-.29-.58-.45-1A2.94,2.94,0,0,1,40.1,446.82Z" style="fill:#263238"></path><path d="M49.43,470.86a16,16,0,0,0-12.81-6.92c-1.29,0-2.81.3-3.32,1.48s.35,2.5,1.28,3.39A13.63,13.63,0,0,0,49.5,471.2" style="fill:#456445"></path><path d="M38.77,467.25a3.94,3.94,0,0,1,.81,0,6.65,6.65,0,0,1,.94,0c.36.05.78.06,1.24.16a14.06,14.06,0,0,1,1.48.31,15.67,15.67,0,0,1,1.66.52,17.85,17.85,0,0,1,3.55,1.82,17,17,0,0,1,3,2.63,15.26,15.26,0,0,1,1.08,1.36,12.29,12.29,0,0,1,.82,1.28,12.1,12.1,0,0,1,.58,1.11,6.94,6.94,0,0,1,.37.86,3.74,3.74,0,0,1,.26.77c-.06,0-.44-1.06-1.39-2.63-.25-.39-.51-.82-.84-1.24a15.5,15.5,0,0,0-1.09-1.32,17.28,17.28,0,0,0-3-2.57,17.79,17.79,0,0,0-3.47-1.81,16.32,16.32,0,0,0-1.63-.54c-.52-.16-1-.25-1.46-.35C39.92,467.3,38.77,467.31,38.77,467.25Z" style="fill:#263238"></path></g><g id="freepik--404-error--inject-41"><polygon points="323.77 480.07 350.95 480.07 389.94 291.29 363.88 285.9 323.77 480.07" style="fill:#455a64"></polygon><polygon points="440.83 420.26 276.63 386.34 271.98 382.17 289.34 324.83 296.96 325.33 285.21 319.07 291.93 285.56 456.13 319.48 460.79 323.66 453.98 356.62 440.97 356.86 448.13 358.23 452.78 362.4 440.83 420.26" style="fill:#263238"></polygon><polygon points="436.18 416.09 271.98 382.17 284.69 320.65 292.31 321.15 285.95 314.54 291.93 285.56 456.13 319.48 449.32 352.44 436.32 352.68 448.13 358.23 436.18 416.09" style="fill:#455a64"></polygon><path d="M439.83,352.34s-.13,0-.39,0l-1.15-.08-4.42-.36-3.19-.28-3.79-.45c-2.71-.34-5.82-.66-9.21-1.22l-5.35-.81c-1.86-.29-3.78-.67-5.77-1-4-.68-8.23-1.57-12.69-2.47-8.91-1.89-18.66-4.18-28.84-6.77-20.35-5.24-38.69-10.28-52.07-13.55-3.33-.85-6.37-1.54-9-2.18s-5-1.16-6.84-1.57l-4.32-1-1.12-.27a2.25,2.25,0,0,1-.38-.12,1.78,1.78,0,0,1,.39.06l1.14.21,4.34.87c1.89.38,4.2.87,6.86,1.48s5.71,1.27,9.06,2.09c13.4,3.16,31.77,8.14,52.11,13.37,10.18,2.59,19.91,4.9,28.8,6.82,4.46.91,8.68,1.82,12.67,2.52,2,.36,3.91.74,5.76,1l5.33.85c3.39.59,6.48.94,9.19,1.31l3.78.5,3.18.33,4.41.48,1.14.14Z" style="fill:#263238"></path><path d="M448.08,347.09a3.52,3.52,0,0,1-.37-.24l-1-.75c-.91-.65-2.21-1.68-4-2.9a147.3,147.3,0,0,0-15.38-9.44,145.54,145.54,0,0,0-24.67-10.26,141.35,141.35,0,0,0-32.13-5.92c-11.61-.85-22.69.28-32.78.51a129.21,129.21,0,0,1-14.35-.29,97.76,97.76,0,0,1-29.63-7.21c-2-.83-3.47-1.53-4.48-2l-1.14-.58-.38-.21a1.85,1.85,0,0,1,.41.16l1.17.52c1,.46,2.53,1.13,4.51,1.92a101.42,101.42,0,0,0,17.26,5.19,99.57,99.57,0,0,0,12.32,1.74,133.67,133.67,0,0,0,14.29.23c10.06-.26,21.17-1.41,32.84-.56a140.18,140.18,0,0,1,32.26,6,144.05,144.05,0,0,1,24.71,10.42A137.37,137.37,0,0,1,442.85,343c1.73,1.24,3,2.31,3.9,3l1,.8A2.85,2.85,0,0,1,448.08,347.09Z" style="fill:#263238"></path><path d="M368.71,303a4.21,4.21,0,0,1-.77.27l-2.25.67c-1,.3-2.17.63-3.58.95s-3,.76-4.8,1.08-3.74.75-5.87,1-4.39.6-6.78.87a136.49,136.49,0,0,1-15.66.61,140.52,140.52,0,0,1-15.62-1.29c-2.38-.38-4.64-.71-6.74-1.17s-4-.86-5.81-1.3-3.35-.89-4.74-1.29-2.58-.77-3.54-1.1l-2.22-.77a4.93,4.93,0,0,1-.76-.3,3.89,3.89,0,0,1,.8.18l2.25.66c1,.3,2.16.65,3.56,1s3,.83,4.75,1.2,3.71.85,5.81,1.22,4.35.75,6.72,1.11A147.47,147.47,0,0,0,329,307.83a145.67,145.67,0,0,0,15.59-.56c2.38-.26,4.65-.47,6.76-.81s4.07-.63,5.86-1,3.39-.69,4.8-1,2.62-.59,3.6-.85l2.27-.55A3.74,3.74,0,0,1,368.71,303Z" style="fill:#263238"></path><path d="M325,361.66s.26.14.74.44l2.16,1.33c1.9,1.15,4.68,2.91,8.4,4.9a55.78,55.78,0,0,0,14.28,5.53,34.62,34.62,0,0,0,4.57.7,7.14,7.14,0,0,0,4.62-1,3.72,3.72,0,0,0,1.38-2,5,5,0,0,0,0-2.53,7.76,7.76,0,0,0-3.15-4.23c-12.52-8.3-30.15-14.35-50.1-14.91-2.49-.08-5-.08-7.56,0s-5.16.68-6.87,2.58a4.69,4.69,0,0,0-1.31,3.38,6.09,6.09,0,0,0,1.4,3.46c1.61,2.06,3.93,3.49,6.16,5,9,6.1,18.53,12.16,29.25,16.36s22.11,6.09,32.84,4.5a47.35,47.35,0,0,0,7.8-1.84,13.5,13.5,0,0,0,6.47-4.08,11.44,11.44,0,0,0,2.31-7.07,16.69,16.69,0,0,0-1.62-7.22,26.05,26.05,0,0,0-9.66-10.49,46.9,46.9,0,0,0-12.53-5.41c-4.25-1.23-8.46-2.11-12.48-3l-11.57-2.62-34.91-7.93-9.48-2.19-2.46-.58c-.56-.13-.84-.22-.84-.22l.85.16,2.48.52,9.51,2.08,34.95,7.74,11.57,2.58c4,.91,8.24,1.77,12.52,3a47.2,47.2,0,0,1,12.68,5.45,26.56,26.56,0,0,1,9.88,10.7,17.29,17.29,0,0,1,1.68,7.46,12,12,0,0,1-2.42,7.43,14.09,14.09,0,0,1-6.74,4.28,46.47,46.47,0,0,1-7.91,1.87c-10.86,1.62-22.39-.31-33.14-4.52S308.4,371,299.42,364.87c-2.22-1.54-4.58-3-6.28-5.17a6.63,6.63,0,0,1-1.53-3.8,5.28,5.28,0,0,1,1.47-3.79,7.77,7.77,0,0,1,3.39-2.12,15.28,15.28,0,0,1,3.87-.64c2.58-.1,5.11-.09,7.61,0,20.07.61,37.75,6.71,50.35,15.13a8.16,8.16,0,0,1,3.29,4.48,5.41,5.41,0,0,1,0,2.74,4,4,0,0,1-1.53,2.18,7.55,7.55,0,0,1-4.87,1.07,36.71,36.71,0,0,1-4.63-.73,55.47,55.47,0,0,1-14.31-5.66c-3.72-2-6.48-3.82-8.36-5-.92-.59-1.63-1-2.12-1.38S325,361.66,325,361.66Z" style="fill:#263238"></path><path d="M444.89,372.33a6.37,6.37,0,0,1-1-.19c-.62-.17-1.55-.35-2.74-.56a34.29,34.29,0,0,0-10.24.08,52.45,52.45,0,0,0-14.45,4.66,143.53,143.53,0,0,0-16.06,9.56,130.63,130.63,0,0,1-16.21,9.5,50.19,50.19,0,0,1-14.68,4.4,32.08,32.08,0,0,1-10.33-.29,22.43,22.43,0,0,1-2.72-.72,5.29,5.29,0,0,1-.92-.34,6.75,6.75,0,0,1,.95.22c.62.18,1.54.38,2.73.61a33.52,33.52,0,0,0,10.23.09,50.74,50.74,0,0,0,14.5-4.48,134.85,134.85,0,0,0,16.11-9.5,139.21,139.21,0,0,1,16.16-9.56,51.3,51.3,0,0,1,14.63-4.58,32.78,32.78,0,0,1,10.34.12A23.08,23.08,0,0,1,444,372,5.11,5.11,0,0,1,444.89,372.33Z" style="fill:#263238"></path><path d="M441.85,388.61c0,.06-.78-.26-2.22-.58a17.16,17.16,0,0,0-6.19-.2,35.33,35.33,0,0,0-8.83,2.72,81.1,81.1,0,0,0-10.07,5.27c-3.48,2.06-6.8,4.07-10,5.6a41.24,41.24,0,0,1-8.81,3.17,25.28,25.28,0,0,1-6.28.62,13.64,13.64,0,0,1-1.71-.15,2.2,2.2,0,0,1-.59-.11c0-.07.83,0,2.3,0a27.46,27.46,0,0,0,6.19-.8,43.15,43.15,0,0,0,8.66-3.26c3.14-1.54,6.43-3.55,9.92-5.62A76.11,76.11,0,0,1,424.4,390a34.06,34.06,0,0,1,9-2.63,16.29,16.29,0,0,1,6.3.4,14.23,14.23,0,0,1,1.63.55A2.12,2.12,0,0,1,441.85,388.61Z" style="fill:#263238"></path><path d="M389,305.75c0,.17-6.33-1.07-14.06-2.77s-14-3.21-13.93-3.37,6.33,1.07,14.06,2.77S389,305.59,389,305.75Z" style="fill:#263238"></path><path d="M343.51,343.69l-5.14-1.12-1.44,6.62-9.55-2.07,1.44-6.63-18.29-4,1.39-6.38,20.23-18.22,10.14,2.2-18.5,17.16,7,1.52,1.28-5.88,9.25,2-1.28,5.89,5.14,1.12Z" style="fill:#fff"></path><path d="M347.82,333.44C350.3,322,358.16,316.85,367,318.77s13.8,9.89,11.31,21.31-10.35,16.6-19.14,14.68S345.33,344.86,347.82,333.44Zm20.66,4.5c1.58-7.26-.1-10.48-3.21-11.16s-6,1.54-7.62,8.8.11,10.49,3.27,11.18S366.9,345.21,368.48,337.94Z" style="fill:#fff"></path><path d="M412,358.6l-5.14-1.12-1.44,6.63L395.86,362l1.45-6.63-18.29-4,1.39-6.38,20.22-18.22L410.77,329l-18.49,17.15,7,1.53,1.28-5.89,9.24,2-1.28,5.88,5.14,1.12Z" style="fill:#fff"></path><path d="M336.19,368.23l-.51,2.17L325.27,368l3.25-13.88,10.14,2.37-.51,2.16-7.55-1.77-.85,3.61,6.7,1.58-.49,2.12-6.71-1.57-.9,3.83Z" style="fill:#fff"></path><path d="M347.65,373.2l-1.88-4.73a4.29,4.29,0,0,1-.54-.11l-3.14-.73-.95,4-2.58-.6,3.26-13.89,5.71,1.34c3.65.86,5.48,3.25,4.76,6.33a4.57,4.57,0,0,1-4,3.69l2.13,5.31Zm-.75-12.52-3-.71-1.3,5.54,3,.7c2.26.53,3.68-.23,4.09-2S349.16,361.21,346.9,360.68Z" style="fill:#fff"></path><path d="M362.15,376.6l-1.88-4.73a5.17,5.17,0,0,1-.54-.11L356.6,371l-1,4.05-2.58-.61,3.25-13.89,5.72,1.34c3.65.86,5.47,3.25,4.75,6.33a4.56,4.56,0,0,1-4,3.69l2.12,5.31Zm-.74-12.52-3-.71-1.3,5.54,3,.7c2.26.53,3.67-.23,4.08-2S363.67,364.61,361.41,364.08Z" style="fill:#fff"></path><path d="M368.21,370.69c1-4.1,4.85-6.39,9.15-5.38s6.78,4.77,5.81,8.89-4.85,6.4-9.15,5.39S367.25,374.8,368.21,370.69Zm12.36,2.9a5,5,0,1,0-6,3.74A4.86,4.86,0,0,0,380.57,373.59Z" style="fill:#fff"></path><path d="M393.37,383.92l-1.88-4.73-.55-.11-3.13-.73-.95,4-2.58-.6,3.26-13.89,5.71,1.34c3.65.86,5.48,3.25,4.76,6.33a4.58,4.58,0,0,1-4,3.69l2.13,5.31Zm-.75-12.53-3-.7-1.3,5.53,3,.71c2.27.53,3.68-.23,4.09-2S394.88,371.92,392.62,371.39Z" style="fill:#fff"></path></g><g id="freepik--Floor--inject-41"><path d="M477,480.07c0,.14-102,.26-227.77.26s-227.78-.12-227.78-.26,102-.26,227.78-.26S477,479.93,477,480.07Z" style="fill:#263238"></path></g></svg>